# xmcd
#
# Track frame offsets:
#	183
#	14535
#	27110
#	38433
#	51790
#	63610
#	77818
#	89325
#	104988
#	117403
#	138405
#	151395
#	165300
#	177665
#	193413
#	205695
#	217258
#	230400
#	245730
#	254168
#	266348
#	275823
#	292238
#	303893
#	317735
#
# Disc length: 4408 seconds
#
# Revision: 0
# Processed by: cddbd v1.5PL3 Copyright (c) Steve Scherf et al.
# Submitted via: dBpowerAMP V4.0
#
DISCID=85113619
DTITLE=Divers - Corse Ile d'Amour
DYEAR=1900
DGENRE=Corse
TTITLE0=S Grimaldi - Corse Ile d'Amour
TTITLE1=A Ciosi - In Core
TTITLE2=M Zanni - U Pasturellu
TTITLE3=J Baldrichi - Sirinata Isulana
TTITLE4=G Poletti - Valsa Per Te
TTITLE5=P Bernardini - Sirinata Nustrale
TTITLE6=X Franceschini - Le Bateau Corse
TTITLE7=L'Albinu - Mi Vulteraghju
TTITLE8=R Vallecalle - Ronde De La Giraglia
TTITLE9=T Pasqualini - Les Nudistes
TTITLE10=Christina - Liberta
TTITLE11=J Casi - Sirinatu
TTITLE12=T Toga - Una Sera Per Furtuna
TTITLE13=Orizonte - Amore Meu
TTITLE14=A Tatich - Valse a Bianca
TTITLE15=Regina and Bruno - Sirinata Ajaccina
TTITLE16=Pascal - In Casa Me
TTITLE17=JM Ceccaldi - A Lingua D'Inde Noi
TTITLE18=J Luccioni - Innamurata
TTITLE19=JM Panunzio - Saveria
TTITLE20=Madricale - A Puce
TTITLE21=JP Martini - Paisoli Cari
TTITLE22=Ribba - Ah Si Je Te Plantais
TTITLE23=F Giordani - Lamentu Di Fagianu
TTITLE24=N Giuly - A Vela D'Oru
EXTD=
EXTT0=
EXTT1=
EXTT2=
EXTT3=
EXTT4=
EXTT5=
EXTT6=
EXTT7=
EXTT8=
EXTT9=
EXTT10=
EXTT11=
EXTT12=
EXTT13=
EXTT14=
EXTT15=
EXTT16=
EXTT17=
EXTT18=
EXTT19=
EXTT20=
EXTT21=
EXTT22=
EXTT23=
EXTT24=
PLAYORDER=
